<?xml version="1.0" encoding="UTF-8" standalone="no"?><!DOCTYPE svg PUBLIC "-//W3C//DTD SVG 1.1//EN" "http://www.w3.org/Graphics/SVG/1.1/DTD/svg11.dtd"><svg width="100%" height="100%" viewBox="0 0 150 150" version="1.1" xmlns="http://www.w3.org/2000/svg" xmlns:xlink="http://www.w3.org/1999/xlink" xml:space="preserve" style="fill-rule:evenodd;clip-rule:evenodd;"><rect id="Artboard1" x="0" y="0" width="150" height="150" style="fill:none;"/><clipPath id="_clip1"><rect id="Artboard11" x="0" y="0" width="150" height="150"/></clipPath><g clip-path="url(#_clip1)"><g><clipPath id="_clip2"><rect x="0" y="-0.001" width="150" height="29.865"/></clipPath><g clip-path="url(#_clip2)"><path d="M150,29.864l-150,0l0,-25.493c0,-2.404 2.15,-4.371 4.778,-4.371l140.444,0c2.628,0 4.778,1.967 4.778,4.371l0,25.493Z" style="fill:url(#_Linear3);fill-rule:nonzero;"/></g><path d="M116.478,7.586l22.346,0c1.701,0 3.082,1.278 3.082,2.855l0,9.991c0,1.577 -1.381,2.855 -3.082,2.855l-22.346,0c-1.703,0 -3.082,-1.278 -3.082,-2.855l0,-9.991c0,-1.577 1.379,-2.855 3.082,-2.855" style="fill:#fcfbfc;fill-rule:nonzero;"/><path d="M132.659,18.651c0,0.191 -0.172,0.354 -0.386,0.354l-5.778,0l0,-7.137l5.778,0c0.214,0 0.386,0.159 0.386,0.354l0,6.429Zm-6.935,0.354l-2.698,0c-0.21,0 -0.384,-0.159 -0.384,-0.354l0,-6.429c0,-0.192 0.172,-0.354 0.384,-0.354l2.698,0l0,7.137Zm6.938,-7.851l-10.023,0c-0.424,0 -0.767,0.32 -0.767,0.716l0,7.133c0,0.395 0.345,0.715 0.767,0.715l10.023,0c0.424,0 0.768,-0.319 0.768,-0.715l0,-7.133c0,-0.396 -0.347,-0.716 -0.768,-0.716" style="fill:#585858;fill-rule:nonzero;"/><rect x="123.412" y="15.437" width="1.541" height="0.714" style="fill:#999;fill-rule:nonzero;"/><rect x="123.412" y="14.009" width="1.541" height="0.714" style="fill:#999;fill-rule:nonzero;"/><rect x="123.412" y="12.582" width="1.541" height="0.713" style="fill:#999;fill-rule:nonzero;"/><path d="M88.738,7.586l13.484,0c1.489,0 2.697,1.118 2.697,2.498l0,10.705c0,1.38 -1.208,2.498 -2.697,2.498l-13.484,0c-1.49,0 -2.697,-1.118 -2.697,-2.498l0,-10.705c0,-1.38 1.207,-2.498 2.697,-2.498" style="fill:#fcfbfc;fill-rule:nonzero;"/><path d="M94.132,19.265l0.77,0.714l4.904,-4.542l-4.904,-4.543l-0.77,0.714l4.132,3.829l-4.132,3.828Z" style="fill:#b1b1b1;fill-rule:nonzero;"/><path d="M69.089,7.586l13.484,0c1.489,0 2.697,1.118 2.697,2.498l0,10.705c0,1.38 -1.208,2.498 -2.697,2.498l-13.484,0c-1.49,0 -2.697,-1.118 -2.697,-2.498l0,-10.705c0,-1.38 1.207,-2.498 2.697,-2.498" style="fill:#fcfbfc;fill-rule:nonzero;"/><path d="M78.721,19.265l-0.771,0.714l-4.904,-4.542l4.904,-4.543l0.771,0.714l-4.134,3.829l4.134,3.828Z" style="fill:#585858;fill-rule:nonzero;"/><path d="M51.751,11.154c2.34,0 4.239,1.757 4.239,3.925c0,2.168 -1.899,3.926 -4.239,3.926c-2.34,0 -4.238,-1.758 -4.238,-3.926c0,-2.168 1.898,-3.925 4.238,-3.925" style="fill:#15cc35;fill-rule:nonzero;"/><path d="M51.751,11.154c2.34,0 4.239,1.757 4.239,3.925c0,2.168 -1.899,3.926 -4.239,3.926c-2.34,0 -4.238,-1.758 -4.238,-3.926c0,-2.168 1.898,-3.925 4.238,-3.925Z" style="fill:none;stroke:#17b230;stroke-width:0.16px;"/><path d="M36.34,11.154c2.34,0 4.238,1.757 4.238,3.925c0,2.168 -1.898,3.926 -4.238,3.926c-2.34,0 -4.238,-1.758 -4.238,-3.926c0,-2.168 1.898,-3.925 4.238,-3.925" style="fill:#ffbe05;fill-rule:nonzero;"/><path d="M36.34,11.154c2.34,0 4.238,1.757 4.238,3.925c0,2.168 -1.898,3.926 -4.238,3.926c-2.34,0 -4.238,-1.758 -4.238,-3.926c0,-2.168 1.898,-3.925 4.238,-3.925Z" style="fill:none;stroke:#e2a100;stroke-width:0.16px;"/><path d="M20.929,11.154c2.34,0 4.238,1.757 4.238,3.925c0,2.168 -1.898,3.926 -4.238,3.926c-2.34,0 -4.238,-1.758 -4.238,-3.926c0,-2.168 1.898,-3.925 4.238,-3.925" style="fill:#ff5f52;fill-rule:nonzero;"/><path d="M20.929,11.154c2.34,0 4.238,1.757 4.238,3.925c0,2.168 -1.898,3.926 -4.238,3.926c-2.34,0 -4.238,-1.758 -4.238,-3.926c0,-2.168 1.898,-3.925 4.238,-3.925Z" style="fill:none;stroke:#e33e32;stroke-width:0.16px;"/><rect x="0" y="29.865" width="150" height="120.135" style="fill:#f9f7f9;fill-rule:nonzero;"/><g><g opacity="0.259995"><clipPath id="_clip4"><rect x="18.495" y="113.332" width="112.501" height="9.375"/></clipPath><g clip-path="url(#_clip4)"><rect x="18.495" y="112.02" width="112.501" height="12" style="fill:#bdbdbd;"/></g></g></g><g><g opacity="0.259995"><clipPath id="_clip5"><rect x="18.495" y="53.176" width="112.501" height="9.375"/></clipPath><g clip-path="url(#_clip5)"><rect x="18.495" y="51.863" width="112.501" height="12" style="fill:#bdbdbd;"/></g></g></g><g><g opacity="0.259995"><clipPath id="_clip6"><rect x="44.277" y="68.801" width="86.719" height="9.375"/></clipPath><g clip-path="url(#_clip6)"><rect x="44.277" y="67.488" width="86.719" height="12" style="fill:#bdbdbd;"/></g></g></g><rect x="52.871" y="83.113" width="78.125" height="12" style="fill:#2196f3;"/><g><g opacity="0.259995"><clipPath id="_clip7"><rect x="36.464" y="98.488" width="94.532" height="9.375"/></clipPath><g clip-path="url(#_clip7)"><rect x="36.464" y="97.176" width="94.532" height="12" style="fill:#bdbdbd;"/></g></g></g></g></g><defs><linearGradient id="_Linear3" x1="0" y1="0" x2="1" y2="0" gradientUnits="userSpaceOnUse" gradientTransform="matrix(0,-29.8652,32.6516,0,74.9997,29.8647)"><stop offset="0" style="stop-color:#d6d3d6;stop-opacity:1"/><stop offset="0.97" style="stop-color:#f8f7f8;stop-opacity:1"/><stop offset="1" style="stop-color:#fff;stop-opacity:1"/></linearGradient></defs></svg>