<?xml version="1.0" encoding="UTF-8" standalone="no"?><!DOCTYPE svg PUBLIC "-//W3C//DTD SVG 1.1//EN" "http://www.w3.org/Graphics/SVG/1.1/DTD/svg11.dtd"><svg width="100%" height="100%" viewBox="0 0 192 192" version="1.1" xmlns="http://www.w3.org/2000/svg" xmlns:xlink="http://www.w3.org/1999/xlink" xml:space="preserve" style="fill-rule:evenodd;clip-rule:evenodd;"><clipPath id="_clip1"><rect x="-0.001" y="-0.001" width="191.999" height="38.227"/></clipPath><g clip-path="url(#_clip1)"><path d="M191.999,38.226l-191.999,0l0,-32.632c0,-3.077 2.752,-5.594 6.116,-5.594l179.767,0c3.364,0 6.116,2.517 6.116,5.594l0,32.632Z" style="fill:url(#_Linear2);fill-rule:nonzero;"/></g><path d="M149.09,9.71l28.603,0c2.178,0 3.945,1.636 3.945,3.654l0,12.789c0,2.019 -1.767,3.654 -3.945,3.654l-28.603,0c-2.179,0 -3.945,-1.635 -3.945,-3.654l0,-12.789c0,-2.018 1.766,-3.654 3.945,-3.654" style="fill:#fcfbfc;fill-rule:nonzero;"/><path d="M169.803,23.873c0,0.245 -0.221,0.453 -0.494,0.453l-7.396,0l0,-9.135l7.396,0c0.274,0 0.494,0.203 0.494,0.453l0,8.229Zm-8.877,0.453l-3.454,0c-0.268,0 -0.491,-0.203 -0.491,-0.453l0,-8.229c0,-0.246 0.22,-0.453 0.491,-0.453l3.454,0l0,9.135Zm8.881,-10.049l-12.83,0c-0.543,0 -0.982,0.41 -0.982,0.916l0,9.131c0,0.505 0.442,0.915 0.982,0.915l12.83,0c0.542,0 0.982,-0.409 0.982,-0.915l0,-9.131c0,-0.506 -0.443,-0.916 -0.982,-0.916" style="fill:#585858;fill-rule:nonzero;"/><rect x="157.967" y="19.758" width="1.973" height="0.914" style="fill:#999;fill-rule:nonzero;"/><rect x="157.967" y="17.931" width="1.973" height="0.914" style="fill:#999;fill-rule:nonzero;"/><rect x="157.967" y="16.104" width="1.973" height="0.913" style="fill:#999;fill-rule:nonzero;"/><path d="M113.584,9.71l17.26,0c1.906,0 3.452,1.431 3.452,3.197l0,13.703c0,1.766 -1.546,3.197 -3.452,3.197l-17.26,0c-1.907,0 -3.452,-1.431 -3.452,-3.197l0,-13.703c0,-1.766 1.545,-3.197 3.452,-3.197" style="fill:#fcfbfc;fill-rule:nonzero;"/><path d="M120.488,24.659l0.986,0.914l6.277,-5.814l-6.277,-5.814l-0.986,0.914l5.29,4.9l-5.29,4.9Z" style="fill:#b1b1b1;fill-rule:nonzero;"/><path d="M88.433,9.71l17.26,0c1.906,0 3.452,1.431 3.452,3.197l0,13.703c0,1.766 -1.546,3.197 -3.452,3.197l-17.26,0c-1.907,0 -3.452,-1.431 -3.452,-3.197l0,-13.703c0,-1.766 1.545,-3.197 3.452,-3.197" style="fill:#fcfbfc;fill-rule:nonzero;"/><path d="M100.762,24.659l-0.986,0.914l-6.277,-5.814l6.277,-5.814l0.986,0.914l-5.291,4.9l5.291,4.9Z" style="fill:#585858;fill-rule:nonzero;"/><path d="M66.241,14.277c2.995,0 5.425,2.249 5.425,5.024c0,2.775 -2.43,5.025 -5.425,5.025c-2.996,0 -5.425,-2.25 -5.425,-5.025c0,-2.775 2.429,-5.024 5.425,-5.024" style="fill:#15cc35;fill-rule:nonzero;"/><path d="M66.241,14.277c2.995,0 5.425,2.249 5.425,5.024c0,2.775 -2.43,5.025 -5.425,5.025c-2.996,0 -5.425,-2.25 -5.425,-5.025c0,-2.775 2.429,-5.024 5.425,-5.024Z" style="fill:none;stroke:#17b230;stroke-width:0.16px;"/><path d="M46.515,14.277c2.995,0 5.425,2.249 5.425,5.024c0,2.775 -2.43,5.025 -5.425,5.025c-2.996,0 -5.425,-2.25 -5.425,-5.025c0,-2.775 2.429,-5.024 5.425,-5.024" style="fill:#ffbe05;fill-rule:nonzero;"/><path d="M46.515,14.277c2.995,0 5.425,2.249 5.425,5.024c0,2.775 -2.43,5.025 -5.425,5.025c-2.996,0 -5.425,-2.25 -5.425,-5.025c0,-2.775 2.429,-5.024 5.425,-5.024Z" style="fill:none;stroke:#e2a100;stroke-width:0.16px;"/><path d="M26.789,14.277c2.995,0 5.425,2.249 5.425,5.024c0,2.775 -2.43,5.025 -5.425,5.025c-2.996,0 -5.425,-2.25 -5.425,-5.025c0,-2.775 2.429,-5.024 5.425,-5.024" style="fill:#ff5f52;fill-rule:nonzero;"/><path d="M26.789,14.277c2.995,0 5.425,2.249 5.425,5.024c0,2.775 -2.43,5.025 -5.425,5.025c-2.996,0 -5.425,-2.25 -5.425,-5.025c0,-2.775 2.429,-5.024 5.425,-5.024Z" style="fill:none;stroke:#e33e32;stroke-width:0.16px;"/><rect x="0" y="38.226" width="191.999" height="153.773" style="fill:#f9f7f9;fill-rule:nonzero;"/><rect x="20.994" y="62.74" width="150.3" height="12.846" style="fill:#2196f3;fill-rule:nonzero;stroke:#2196f3;stroke-width:1px;stroke-miterlimit:10;"/><g><g opacity="0.259995"><rect x="20.966" y="86.014" width="150.3" height="12.846" style="fill:#bdbdbd;fill-rule:nonzero;"/></g></g><g><g opacity="0.259995"><rect x="20.966" y="108.18" width="150.3" height="12.846" style="fill:#bdbdbd;fill-rule:nonzero;"/></g></g><g><g opacity="0.259995"><rect x="20.966" y="131.453" width="150.3" height="12.846" style="fill:#bdbdbd;fill-rule:nonzero;"/></g></g><g><g opacity="0.259995"><rect x="20.966" y="155.08" width="150.3" height="12.846" style="fill:#bdbdbd;fill-rule:nonzero;"/></g></g><rect x="67.012" y="41.691" width="11.318" height="132.977" style="fill:#f5f5f5;fill-rule:nonzero;"/><rect x="118.1" y="47.471" width="11.318" height="132.977" style="fill:#f5f5f5;fill-rule:nonzero;"/><defs><linearGradient id="_Linear2" x1="0" y1="0" x2="1" y2="0" gradientUnits="userSpaceOnUse" gradientTransform="matrix(0,-38.2274,41.7938,0,95.999,38.2267)"><stop offset="0" style="stop-color:#d6d3d6;stop-opacity:1"/><stop offset="0.97" style="stop-color:#f8f7f8;stop-opacity:1"/><stop offset="1" style="stop-color:#fff;stop-opacity:1"/></linearGradient></defs></svg>